<?xml version="1.0" standalone="no"?>
<!DOCTYPE svg PUBLIC "-//W3C//DTD SVG 20010904//EN"
 "http://www.w3.org/TR/2001/REC-SVG-20010904/DTD/svg10.dtd">
<svg version="1.0" xmlns="http://www.w3.org/2000/svg"
 width="320.000000pt" height="240.000000pt" viewBox="0 0 320.000000 240.000000"
 preserveAspectRatio="xMidYMid meet">

<g transform="translate(0.000000,240.000000) scale(0.100000,-0.100000)"
fill="#000000" stroke="none">
<path d="M0 1814 c0 -538 1 -585 16 -582 9 2 20 10 24 18 15 28 35 105 32 120
-4 25 33 100 78 160 53 69 76 89 97 84 14 -4 26 1 37 17 21 30 20 36 -5 42
-12 3 -18 10 -15 16 4 5 -2 15 -11 21 -16 10 -15 10 4 5 19 -5 22 -3 16 11 -6
15 -4 15 18 1 47 -31 210 -67 330 -74 126 -6 189 6 259 54 19 12 38 23 42 23
15 0 -7 -35 -41 -64 -19 -17 -50 -48 -69 -68 -20 -21 -39 -38 -43 -38 -5 0
-19 12 -33 27 -24 25 -25 26 -50 9 -29 -18 -36 -65 -13 -85 8 -6 19 -29 26
-50 15 -53 56 -100 106 -122 52 -24 212 -27 221 -4 5 11 19 13 57 10 46 -3
163 -31 209 -50 25 -10 58 58 40 83 -7 9 -16 27 -22 40 -11 26 -21 27 -61 7
-16 -9 -34 -13 -39 -10 -5 3 -11 1 -15 -5 -3 -5 -15 -10 -26 -10 -10 0 -28 -5
-38 -12 -17 -10 -24 -7 -48 19 -26 27 -84 53 -121 53 -26 0 -71 -31 -89 -60
-11 -19 -25 -30 -39 -30 -24 0 -64 43 -64 68 0 31 46 105 83 134 38 31 133
144 155 184 9 17 9 24 -2 33 -11 9 -6 25 26 87 30 56 41 92 46 142 5 51 11 68
24 70 22 4 100 -46 92 -59 -4 -8 -9 -7 -14 1 -5 8 -10 9 -14 2 -4 -6 -14 -8
-23 -5 -9 4 -14 2 -10 -3 4 -8 -7 -63 -24 -119 -6 -19 27 -100 68 -169 3 -4 9
-2 14 5 6 10 8 6 7 -11 -2 -20 1 -25 19 -24 16 0 20 -4 17 -21 -2 -12 4 -25
14 -32 17 -10 17 -7 5 55 -13 63 -13 116 0 82 3 -8 13 -51 23 -95 10 -44 26
-95 36 -113 10 -18 18 -39 18 -48 0 -30 103 -126 168 -156 57 -26 80 -48 50
-48 -8 0 -9 -3 -3 -8 6 -4 10 -14 10 -22 0 -8 5 -14 11 -13 11 2 11 -8 5 -102
-2 -33 -4 -37 -12 -20 -7 16 -9 14 -6 -13 2 -17 0 -32 -5 -32 -5 0 -4 -8 1
-18 13 -25 -21 -292 -38 -292 -20 1 -27 23 -27 87 -1 47 -7 84 -17 105 -9 18
-21 52 -27 76 -6 23 -15 42 -19 42 -13 0 -23 -33 -12 -39 14 -9 1 -61 -15 -61
-17 0 -17 5 -2 30 10 15 10 22 0 32 -7 7 -18 13 -25 13 -7 0 -12 7 -13 15 0 8
-4 24 -8 35 -5 11 -10 26 -12 33 -5 19 -44 -4 -44 -26 -1 -23 -31 -58 -58 -66
-19 -6 -22 -4 -22 21 l-1 28 -21 -25 -20 -25 -15 22 c-14 21 -15 21 -34 2 -10
-10 -26 -19 -34 -19 -9 0 -25 -8 -36 -19 -21 -20 -75 -35 -90 -25 -12 7 -11
34 1 34 16 0 11 30 -6 37 -10 4 -20 0 -26 -10 -5 -10 -18 -17 -29 -17 -11 0
-39 -15 -62 -34 -23 -18 -52 -39 -65 -45 -23 -12 -23 -13 -6 -32 18 -20 54
-26 54 -9 0 6 8 10 18 10 13 0 23 -12 31 -37 12 -42 50 -74 86 -77 17 -1 23
-6 22 -20 -3 -30 21 -30 28 1 7 32 32 69 40 61 3 -3 -1 -25 -9 -49 -12 -33
-12 -45 -3 -51 36 -22 -52 4 -103 30 -33 18 -69 32 -80 32 -29 0 -36 -28 -17
-62 9 -17 17 -35 17 -41 0 -7 10 -17 23 -22 12 -6 21 -17 19 -24 -1 -7 2 -19
8 -26 8 -10 5 -24 -15 -55 -37 -59 -19 -89 37 -59 16 8 22 8 29 -2 4 -8 3 -16
-2 -20 -6 -3 -11 -10 -11 -15 -1 -5 -14 -17 -29 -26 -34 -20 -34 -23 -14 -72
15 -35 17 -36 52 -30 33 6 36 5 29 -12 -4 -10 -10 -30 -12 -44 -3 -14 -14 -40
-25 -58 -10 -18 -19 -40 -19 -47 0 -8 -9 -20 -21 -27 -11 -7 -34 -42 -50 -78
-21 -47 -37 -69 -57 -77 -43 -18 -119 -22 -146 -8 -14 7 -38 16 -55 20 -19 4
-28 11 -25 20 7 16 -52 60 -61 45 -8 -13 -52 -13 -60 0 -3 5 -12 7 -19 4 -10
-4 -12 2 -9 19 4 19 -2 30 -26 46 -17 12 -31 27 -31 32 0 6 -11 25 -25 43 -14
18 -30 47 -36 64 -6 17 -21 37 -33 46 -20 13 -23 21 -19 63 3 36 -1 53 -15 69
-17 20 -59 40 -74 36 -5 -1 -8 6 -8 16 0 25 -32 58 -80 82 -75 38 -70 60 -70
-325 l0 -345 1600 0 1600 0 0 1005 0 1005 -40 40 c-22 22 -37 40 -32 40 4 1
-5 11 -20 23 -33 28 -71 94 -57 102 13 9 -73 108 -131 150 l-48 35 -573 0
-573 0 -32 -31 c-28 -27 -31 -35 -22 -55 12 -27 -7 -77 -42 -109 -11 -10 -20
-24 -20 -31 0 -7 -4 -15 -9 -18 -5 -4 -19 27 -30 66 -27 91 -60 158 -77 158
-8 0 -14 5 -14 10 0 6 -45 10 -116 10 l-116 0 31 -39 c39 -49 81 -142 81 -180
0 -24 -5 -29 -43 -38 -24 -5 -52 -6 -63 -3 -12 4 -23 1 -30 -7 -9 -13 -15 -13
-46 0 -19 8 -54 18 -77 22 -36 6 -46 14 -80 63 -21 32 -64 85 -96 120 l-57 62
-434 0 -434 0 0 -586z m574 537 c31 -17 63 -31 71 -31 8 0 19 -16 24 -37 13
-45 64 -103 91 -103 10 0 22 -4 25 -10 11 -18 33 -11 41 13 4 12 17 33 30 46
19 18 22 27 13 38 -9 11 -7 13 10 10 25 -4 87 -61 107 -99 14 -28 24 -181 12
-193 -3 -4 -15 -2 -26 4 -12 6 -30 11 -41 11 -19 0 -21 -4 -15 -41 6 -35 4
-41 -15 -46 -19 -5 -21 -11 -18 -62 2 -43 6 -55 18 -53 27 7 -36 -50 -86 -76
-46 -25 -59 -27 -160 -26 -144 1 -257 36 -417 130 -27 16 -35 26 -15 18 13 -5
16 -2 11 10 -4 10 1 18 12 23 11 3 22 11 25 16 4 6 15 6 25 2 11 -4 34 -9 51
-12 18 -2 71 -15 118 -28 93 -27 139 -30 200 -14 71 18 97 32 106 56 5 15 14
21 21 17 6 -4 8 -3 5 3 -3 5 7 20 23 32 22 16 29 28 27 49 -5 40 -29 84 -43
78 -7 -3 -15 2 -18 10 -3 8 -11 14 -18 14 -7 0 -25 11 -40 25 -15 14 -31 26
-35 27 -15 3 -118 51 -123 58 -3 3 -26 18 -52 33 -58 33 -60 38 -62 98 l-2 48
32 -4 c17 -2 57 -18 88 -34z m1767 -328 c16 -10 29 -23 29 -29 0 -7 14 -15 31
-19 17 -4 41 -17 53 -29 13 -13 34 -21 57 -22 29 0 46 -9 80 -42 24 -23 49
-42 54 -42 13 0 120 -97 120 -109 0 -5 3 -13 8 -17 11 -12 7 -76 -7 -109 -11
-25 -10 -36 2 -65 22 -54 100 -144 130 -150 31 -6 51 -57 26 -67 -18 -7 -46
-58 -37 -67 13 -13 32 -5 35 15 3 20 6 19 49 -14 52 -41 80 -37 71 10 -5 27
-39 85 -54 91 -5 2 -8 11 -8 19 0 10 6 14 20 10 15 -4 20 -1 18 10 -2 9 3 18
9 20 21 8 53 -82 53 -148 0 -32 4 -59 8 -59 5 0 16 15 25 33 12 25 16 28 16
12 1 -12 -9 -41 -21 -65 -19 -38 -32 -49 -78 -67 -52 -21 -122 -29 -152 -18
-11 5 -13 19 -7 68 4 34 5 65 3 69 -9 14 -32 8 -40 -9 -10 -25 -11 -29 -13
-61 -1 -20 -8 -32 -26 -40 -14 -6 -25 -18 -25 -26 0 -8 -20 -24 -44 -34 -55
-25 -136 -102 -136 -130 0 -11 -4 -24 -10 -27 -5 -3 -10 -15 -10 -25 0 -10
-14 -27 -31 -37 -28 -17 -30 -21 -27 -68 2 -39 0 -50 -12 -50 -10 0 -14 -8
-12 -22 2 -16 -3 -22 -19 -25 -16 -2 -25 -13 -31 -36 -5 -18 -15 -32 -23 -32
-8 0 -15 -6 -15 -13 0 -8 -9 -18 -19 -23 -11 -5 -42 -30 -68 -55 -27 -25 -63
-54 -80 -62 -17 -9 -40 -27 -50 -41 -17 -21 -21 -22 -38 -10 -10 8 -15 14 -11
14 5 0 -4 10 -20 22 -16 13 -33 22 -38 20 -4 -2 3 11 18 28 14 18 24 36 20 41
-3 5 0 9 7 9 8 0 8 4 1 13 -5 6 -13 33 -17 58 -6 42 -10 48 -38 53 -63 13 -72
43 -32 106 24 38 32 110 12 110 -5 0 -7 15 -4 33 3 17 9 51 12 74 l7 43 -107
109 c-106 108 -141 150 -131 152 3 1 12 2 19 3 6 1 11 7 9 14 -1 7 7 12 18 12
19 0 24 10 21 37 -2 12 97 63 123 63 8 0 27 -12 41 -27 25 -27 25 -27 25 -5 0
33 -77 180 -108 207 -35 30 -38 18 -12 -39 23 -52 15 -91 -18 -79 -21 9 -104
71 -114 87 -21 31 2 121 33 129 29 8 23 44 -16 91 -19 24 -35 47 -35 51 0 4
12 18 27 30 21 19 31 22 52 13 31 -11 71 -47 71 -63 0 -7 9 -20 20 -30 11 -10
20 -14 20 -9 0 5 6 -2 13 -16 16 -33 71 -45 128 -29 41 11 42 12 22 22 -54 24
-15 36 154 46 67 4 126 10 130 14 4 4 -1 15 -10 25 -15 15 -40 17 -178 18
-131 1 -163 4 -176 17 -29 28 8 99 71 138 41 25 146 26 187 2z m-895 -43 c43
-27 77 -113 60 -151 -6 -15 -12 -15 -49 -3 -23 8 -50 19 -59 24 -10 6 -29 10
-43 10 -23 0 -25 4 -25 45 0 35 6 52 25 70 29 30 48 31 91 5z m-458 -25 c2 -2
-4 -20 -13 -41 -14 -35 -18 -37 -29 -22 -7 9 -10 33 -8 52 4 33 6 35 26 24 11
-6 22 -12 24 -13z m272 -10 c0 -8 -4 -15 -8 -15 -5 0 -9 7 -9 15 0 8 4 15 9
15 4 0 8 -7 8 -15z m-14 -72 c-11 -11 -19 6 -11 24 8 17 8 17 12 0 3 -10 2
-21 -1 -24z m508 -81 c4 -12 11 -20 16 -17 11 7 17 -19 23 -95 6 -66 -23 -190
-55 -236 -32 -47 -33 -35 -2 20 33 59 37 129 8 151 -18 15 -18 16 9 38 22 18
27 31 27 65 0 23 -2 42 -4 42 -18 0 -36 -15 -36 -31 0 -17 -36 -46 -46 -37 -2
2 2 22 8 44 11 40 13 50 16 94 2 24 2 24 16 5 7 -11 16 -30 20 -43z m-455 -77
l0 -20 -9 20 c-5 11 -9 27 -9 35 -1 13 0 13 9 0 5 -8 9 -24 9 -35z m111 -115
c68 -1 130 -69 145 -157 4 -27 2 -33 -13 -33 -33 0 -110 60 -141 110 -34 55
-53 114 -30 93 7 -7 24 -13 39 -13z m10 -145 l35 -40 -33 30 c-19 17 -38 39
-44 50 -6 11 -7 16 -2 10 5 -5 25 -28 44 -50z m1727 -102 c-3 -10 -5 -2 -5 17
0 19 2 27 5 18 2 -10 2 -26 0 -35z m-2127 -383 c0 -5 -4 -10 -10 -10 -5 0 -10
5 -10 10 0 6 5 10 10 10 6 0 10 -4 10 -10z m270 -4 c0 -8 7 -16 15 -20 8 -3
15 -15 15 -26 0 -13 10 -24 25 -30 14 -5 25 -15 25 -21 0 -6 7 -9 15 -5 8 3
15 4 15 2 0 -3 3 -11 6 -20 4 -11 -1 -14 -23 -12 -15 1 -40 -6 -54 -15 -28
-20 -104 -40 -114 -31 -11 12 -4 40 19 71 26 35 28 69 5 97 -12 16 -12 17 4
11 9 -3 17 -2 17 3 0 6 7 10 15 10 8 0 15 -6 15 -14z m95 4 c3 -5 2 -10 -4
-10 -5 0 -13 5 -16 10 -3 6 -2 10 4 10 5 0 13 -4 16 -10z m-388 -59 c-12 -28
-15 -30 -32 -18 -17 13 -17 15 0 45 15 25 20 28 31 17 11 -11 11 -19 1 -44z
m-57 29 c0 -5 -4 -10 -10 -10 -5 0 -10 5 -10 10 0 6 5 10 10 10 6 0 10 -4 10
-10z m1926 -459 c18 -35 21 -47 12 -67 -13 -27 -26 -31 -34 -9 -4 8 -16 15
-28 15 -20 1 -20 1 -3 15 14 10 16 18 9 30 -11 21 -3 67 10 63 6 -2 21 -23 34
-47z"/>
<path d="M2467 813 c-4 -3 -7 -12 -7 -20 0 -17 26 -17 33 1 8 21 -11 35 -26
19z"/>
<path d="M1130 2046 c0 -2 7 -7 16 -10 8 -3 12 -2 9 4 -6 10 -25 14 -25 6z"/>
<path d="M1300 1226 c0 -9 5 -16 10 -16 6 0 10 4 10 9 0 6 -4 13 -10 16 -5 3
-10 -1 -10 -9z"/>
<path d="M25 1019 c-4 -6 -5 -13 -2 -16 7 -7 27 6 27 18 0 12 -17 12 -25 -2z"/>
<path d="M670 685 c0 -10 7 -15 18 -13 21 4 19 22 -2 26 -10 2 -16 -3 -16 -13z"/>
<path d="M350 390 c0 -5 5 -10 10 -10 6 0 10 5 10 10 0 6 -4 10 -10 10 -5 0
-10 -4 -10 -10z"/>
<path d="M782 198 c-35 -40 -58 -74 -52 -76 15 -5 60 26 60 42 0 7 18 26 40
41 38 26 49 54 25 62 -5 1 -38 -30 -73 -69z"/>
<path d="M670 194 c0 -9 5 -14 12 -12 18 6 21 28 4 28 -9 0 -16 -7 -16 -16z"/>
</g>
</svg>
